STARTFONT 2.1
FONT sansserif12.bits
SIZE 13 75 75
FONTBOUNDINGBOX 11 14 0 0
STARTPROPERTIES 3
FONT_DESCENT 3
FONT_ASCENT 11
COPYRIGHT "Share and enjoy."
ENDPROPERTIES
CHARS 125
STARTCHAR C002
ENCODING 2
SWIDTH 846 0
DWIDTH 11 0
BBX 11 14 0 -3
BITMAP
0000
0800
0800
0000
0800
0800
1000
2000
2100
2100
1e00
0000
0000
0000
ENDCHAR
STARTCHAR C003
ENCODING 3
SWIDTH 846 0
DWIDTH 11 0
BBX 11 14 0 -3
BITMAP
0000
0000
0000
0000
0e00
1100
2000
2000
2000
1100
0e00
0000
0400
0800
ENDCHAR
STARTCHAR C004
ENCODING 4
SWIDTH 846 0
DWIDTH 11 0
BBX 11 14 0 -3
BITMAP
0000
0480
0480
0000
0000
0000
0000
0000
0000
0000
0000
0000
0000
0000
ENDCHAR
STARTCHAR C005
ENCODING 5
SWIDTH 846 0
DWIDTH 11 0
BBX 11 14 0 -3
BITMAP
0200
0100
0080
0000
0000
0000
0000
0000
0000
0000
0000
0000
0000
0000
ENDCHAR
STARTCHAR C006
ENCODING 6
SWIDTH 846 0
DWIDTH 11 0
BBX 11 14 0 -3
BITMAP
0000
0cc0
1100
1100
3fc0
1100
1100
1100
1100
1100
1100
0000
0000
0000
ENDCHAR
STARTCHAR C007
ENCODING 7
SWIDTH 846 0
DWIDTH 11 0
BBX 11 14 0 -3
BITMAP
0000
0400
0800
0800
0c00
0000
0000
0000
0000
0000
0000
0000
0000
0000
ENDCHAR
STARTCHAR C010
ENCODING 8
SWIDTH 846 0
DWIDTH 11 0
BBX 11 14 0 -3
BITMAP
0000
0400
0400
0000
0400
0400
0400
0400
0400
0400
0400
0000
0000
0000
ENDCHAR
STARTCHAR C011
ENCODING 9
SWIDTH 846 0
DWIDTH 11 0
BBX 11 14 0 -3
BITMAP
0000
0000
0000
0000
0000
0000
0000
0000
0000
0000
0000
0000
0000
0000
ENDCHAR
STARTCHAR C012
ENCODING 10
SWIDTH 846 0
DWIDTH 11 0
BBX 11 14 0 -3
BITMAP
0000
0000
0000
0000
0000
0000
0000
0000
0000
0000
0000
0000
0000
0000
ENDCHAR
STARTCHAR C013
ENCODING 11
SWIDTH 846 0
DWIDTH 11 0
BBX 11 14 0 -3
BITMAP
0100
0200
0400
0000
0000
0000
0000
0000
0000
0000
0000
0000
0000
0000
ENDCHAR
STARTCHAR C014
ENCODING 12
SWIDTH 846 0
DWIDTH 11 0
BBX 11 14 0 -3
BITMAP
0000
0000
0000
0000
0000
0000
0000
0000
0000
0000
0000
0000
0000
0000
ENDCHAR
STARTCHAR C015
ENCODING 13
SWIDTH 846 0
DWIDTH 11 0
BBX 11 14 0 -3
BITMAP
0000
0000
0000
0000
0000
0000
0000
0000
0000
0000
0000
0000
0000
0000
ENDCHAR
STARTCHAR C016
ENCODING 14
SWIDTH 846 0
DWIDTH 11 0
BBX 11 14 0 -3
BITMAP
0000
0000
0780
0000
0000
0000
0000
0000
0000
0000
0000
0000
0000
0000
ENDCHAR
STARTCHAR C017
ENCODING 15
SWIDTH 846 0
DWIDTH 11 0
BBX 11 14 0 -3
BITMAP
0000
0000
0000
0000
0000
0000
0000
0000
0000
0000
0000
0000
0000
0000
ENDCHAR
STARTCHAR C020
ENCODING 16
SWIDTH 846 0
DWIDTH 11 0
BBX 11 14 0 -3
BITMAP
0000
0c80
1300
0000
0000
0000
0000
0000
0000
0000
0000
0000
0000
0000
ENDCHAR
STARTCHAR C021
ENCODING 17
SWIDTH 846 0
DWIDTH 11 0
BBX 11 14 0 -3
BITMAP
0000
3640
4440
4400
fe40
4440
4440
4440
4440
4440
4440
0000
0000
0000
ENDCHAR
STARTCHAR C022
ENCODING 18
SWIDTH 846 0
DWIDTH 11 0
BBX 11 14 0 -3
BITMAP
0000
3640
4440
4440
fe40
4440
4440
4440
4440
4440
4440
0000
0000
0000
ENDCHAR
STARTCHAR C023
ENCODING 19
SWIDTH 846 0
DWIDTH 11 0
BBX 11 14 0 -3
BITMAP
0000
0000
0000
0000
0000
0000
ffe0
0000
0000
0000
0000
0000
0000
0000
ENDCHAR
STARTCHAR C024
ENCODING 20
SWIDTH 846 0
DWIDTH 11 0
BBX 11 14 0 -3
BITMAP
0000
0c80
1080
1000
3c80
1080
1080
1080
1080
1080
1080
0000
0000
0000
ENDCHAR
STARTCHAR C025
ENCODING 21
SWIDTH 846 0
DWIDTH 11 0
BBX 11 14 0 -3
BITMAP
0000
0c80
1080
1080
3c80
1080
1080
1080
1080
1080
1080
0000
0000
0000
ENDCHAR
STARTCHAR C026
ENCODING 22
SWIDTH 846 0
DWIDTH 11 0
BBX 11 14 0 -3
BITMAP
0000
0000
0000
0000
0000
0000
7f80
0000
0000
0000
0000
0000
0000
0000
ENDCHAR
STARTCHAR C027
ENCODING 23
SWIDTH 846 0
DWIDTH 11 0
BBX 11 14 0 -3
BITMAP
0000
1080
0f00
0000
0000
0000
0000
0000
0000
0000
0000
0000
0000
0000
ENDCHAR
STARTCHAR C030
ENCODING 24
SWIDTH 846 0
DWIDTH 11 0
BBX 11 14 0 -3
BITMAP
0000
0000
0000
0000
0000
0000
3f00
0000
0000
0000
0000
0000
0000
0000
ENDCHAR
STARTCHAR C031
ENCODING 25
SWIDTH 846 0
DWIDTH 11 0
BBX 11 14 0 -3
BITMAP
0000
0000
0000
0000
0000
0000
0000
0000
0000
0000
0000
0000
0000
0000
ENDCHAR
STARTCHAR C032
ENCODING 26
SWIDTH 846 0
DWIDTH 11 0
BBX 11 14 0 -3
BITMAP
0000
0000
0000
0000
0000
0000
0000
0000
0000
0000
0000
0000
0000
0000
ENDCHAR
STARTCHAR C033
ENCODING 27
SWIDTH 846 0
DWIDTH 11 0
BBX 11 14 0 -3
BITMAP
0000
0000
0000
0000
0000
0000
0000
0000
0000
0000
0000
0000
0000
0000
ENDCHAR
STARTCHAR C034
ENCODING 28
SWIDTH 846 0
DWIDTH 11 0
BBX 11 14 0 -3
BITMAP
0000
0000
0000
0000
0000
0000
0000
0000
0000
0000
0000
0000
0000
0000
ENDCHAR
STARTCHAR C035
ENCODING 29
SWIDTH 846 0
DWIDTH 11 0
BBX 11 14 0 -3
BITMAP
0000
0000
0000
0000
0000
0000
0000
0000
0000
0000
0000
0000
0100
0100
ENDCHAR
STARTCHAR C036
ENCODING 30
SWIDTH 846 0
DWIDTH 11 0
BBX 11 14 0 -3
BITMAP
0000
0c80
1300
0000
0000
0000
0000
0000
0000
0000
0000
0000
0000
0000
ENDCHAR
STARTCHAR C037
ENCODING 31
SWIDTH 846 0
DWIDTH 11 0
BBX 11 14 0 -3
BITMAP
0300
0480
0480
0300
0000
0000
0000
0000
0000
0000
0000
0000
0000
0000
ENDCHAR
STARTCHAR C040
ENCODING 32
SWIDTH 846 0
DWIDTH 11 0
BBX 11 14 0 -3
BITMAP
0000
0000
0000
0000
0000
0000
0000
0000
0000
0000
0000
0000
0000
0000
ENDCHAR
STARTCHAR !
ENCODING 33
SWIDTH 846 0
DWIDTH 11 0
BBX 11 14 0 -3
BITMAP
0000
0400
0400
0400
0400
0400
0400
0400
0000
0400
0400
0000
0000
0000
ENDCHAR
STARTCHAR "
ENCODING 34
SWIDTH 846 0
DWIDTH 11 0
BBX 11 14 0 -3
BITMAP
0000
0a00
0a00
0a00
0a00
0000
0000
0000
0000
0000
0000
0000
0000
0000
ENDCHAR
STARTCHAR #
ENCODING 35
SWIDTH 846 0
DWIDTH 11 0
BBX 11 14 0 -3
BITMAP
0000
0480
0480
0900
3fc0
0900
1200
7f80
1200
2400
2400
0000
0000
0000
ENDCHAR
STARTCHAR $
ENCODING 36
SWIDTH 846 0
DWIDTH 11 0
BBX 11 14 0 -3
BITMAP
0400
1f00
2480
2400
2400
1f00
0480
0480
2480
2480
1f00
0400
0000
0000
ENDCHAR
STARTCHAR %
ENCODING 37
SWIDTH 846 0
DWIDTH 11 0
BBX 11 14 0 -3
BITMAP
0000
3100
4900
4a00
3200
0400
0400
0980
0a40
1240
1180
0000
0000
0000
ENDCHAR
STARTCHAR &
ENCODING 38
SWIDTH 846 0
DWIDTH 11 0
BBX 11 14 0 -3
BITMAP
0000
1c00
2200
2200
1400
1800
2900
4500
4200
4300
3c80
0000
0000
0000
ENDCHAR
STARTCHAR '
ENCODING 39
SWIDTH 846 0
DWIDTH 11 0
BBX 11 14 0 -3
BITMAP
0000
0c00
0400
0400
0800
0000
0000
0000
0000
0000
0000
0000
0000
0000
ENDCHAR
STARTCHAR (
ENCODING 40
SWIDTH 846 0
DWIDTH 11 0
BBX 11 14 0 -3
BITMAP
0000
0200
0400
0400
0800
0800
0800
0800
0800
0800
0800
0400
0400
0200
ENDCHAR
STARTCHAR )
ENCODING 41
SWIDTH 846 0
DWIDTH 11 0
BBX 11 14 0 -3
BITMAP
0000
0800
0400
0400
0200
0200
0200
0200
0200
0200
0200
0400
0400
0800
ENDCHAR
STARTCHAR *
ENCODING 42
SWIDTH 846 0
DWIDTH 11 0
BBX 11 14 0 -3
BITMAP
0000
0400
1500
0e00
1500
0400
0000
0000
0000
0000
0000
0000
0000
0000
ENDCHAR
STARTCHAR +
ENCODING 43
SWIDTH 846 0
DWIDTH 11 0
BBX 11 14 0 -3
BITMAP
0000
0000
0000
0400
0400
0400
3f80
0400
0400
0400
0000
0000
0000
0000
ENDCHAR
STARTCHAR ,
ENCODING 44
SWIDTH 846 0
DWIDTH 11 0
BBX 11 14 0 -3
BITMAP
0000
0000
0000
0000
0000
0000
0000
0000
0000
0c00
0400
0400
0800
0000
ENDCHAR
STARTCHAR -
ENCODING 45
SWIDTH 846 0
DWIDTH 11 0
BBX 11 14 0 -3
BITMAP
0000
0000
0000
0000
0000
0000
3f00
0000
0000
0000
0000
0000
0000
0000
ENDCHAR
STARTCHAR .
ENCODING 46
SWIDTH 846 0
DWIDTH 11 0
BBX 11 14 0 -3
BITMAP
0000
0000
0000
0000
0000
0000
0000
0000
0000
0400
0400
0000
0000
0000
ENDCHAR
STARTCHAR /
ENCODING 47
SWIDTH 846 0
DWIDTH 11 0
BBX 11 14 0 -3
BITMAP
0000
0100
0100
0200
0200
0400
0400
0800
0800
1000
1000
0000
0000
0000
ENDCHAR
STARTCHAR 0
ENCODING 48
SWIDTH 846 0
DWIDTH 11 0
BBX 11 14 0 -3
BITMAP
0000
0e00
1100
2080
2080
2080
2080
2080
2080
1100
0e00
0000
0000
0000
ENDCHAR
STARTCHAR 1
ENCODING 49
SWIDTH 846 0
DWIDTH 11 0
BBX 11 14 0 -3
BITMAP
0000
0200
0600
1a00
0200
0200
0200
0200
0200
0200
0200
0000
0000
0000
ENDCHAR
STARTCHAR 2
ENCODING 50
SWIDTH 846 0
DWIDTH 11 0
BBX 11 14 0 -3
BITMAP
0000
0f00
1080
1080
0080
0100
0200
0400
0800
1000
3f80
0000
0000
0000
ENDCHAR
STARTCHAR 3
ENCODING 51
SWIDTH 846 0
DWIDTH 11 0
BBX 11 14 0 -3
BITMAP
0000
0e00
1100
1100
0100
0600
0100
2080
2080
1100
0e00
0000
0000
0000
ENDCHAR
STARTCHAR 4
ENCODING 52
SWIDTH 846 0
DWIDTH 11 0
BBX 11 14 0 -3
BITMAP
0000
0300
0500
0900
0900
1100
2100
3f80
0100
0100
0100
0000
0000
0000
ENDCHAR
STARTCHAR 5
ENCODING 53
SWIDTH 846 0
DWIDTH 11 0
BBX 11 14 0 -3
BITMAP
0000
1f00
1000
2000
3e00
2100
0080
0080
0080
2100
1e00
0000
0000
0000
ENDCHAR
STARTCHAR 6
ENCODING 54
SWIDTH 846 0
DWIDTH 11 0
BBX 11 14 0 -3
BITMAP
0000
0f00
1080
2000
2e00
3100
2080
2080
2080
1100
0e00
0000
0000
0000
ENDCHAR
STARTCHAR 7
ENCODING 55
SWIDTH 846 0
DWIDTH 11 0
BBX 11 14 0 -3
BITMAP
0000
3f80
0080
0080
0100
0200
0400
0400
0800
0800
0800
0000
0000
0000
ENDCHAR
STARTCHAR 8
ENCODING 56
SWIDTH 846 0
DWIDTH 11 0
BBX 11 14 0 -3
BITMAP
0000
0e00
1100
1100
1100
0e00
1100
2080
2080
1100
0e00
0000
0000
0000
ENDCHAR
STARTCHAR 9
ENCODING 57
SWIDTH 846 0
DWIDTH 11 0
BBX 11 14 0 -3
BITMAP
0000
0e00
1100
2080
2080
2080
1180
0e80
0080
2100
1e00
0000
0000
0000
ENDCHAR
STARTCHAR :
ENCODING 58
SWIDTH 846 0
DWIDTH 11 0
BBX 11 14 0 -3
BITMAP
0000
0000
0000
0000
0400
0400
0000
0000
0000
0400
0400
0000
0000
0000
ENDCHAR
STARTCHAR ;
ENCODING 59
SWIDTH 846 0
DWIDTH 11 0
BBX 11 14 0 -3
BITMAP
0000
0000
0000
0000
0400
0400
0000
0000
0000
0c00
0400
0400
0800
0000
ENDCHAR
STARTCHAR <
ENCODING 60
SWIDTH 846 0
DWIDTH 11 0
BBX 11 14 0 -3
BITMAP
0000
0100
0200
0400
0800
1000
1000
0800
0400
0200
0100
0000
0000
0000
ENDCHAR
STARTCHAR =
ENCODING 61
SWIDTH 846 0
DWIDTH 11 0
BBX 11 14 0 -3
BITMAP
0000
0000
0000
0000
0000
0000
1f00
0000
1f00
0000
0000
0000
0000
0000
ENDCHAR
STARTCHAR >
ENCODING 62
SWIDTH 846 0
DWIDTH 11 0
BBX 11 14 0 -3
BITMAP
0000
1000
0800
0400
0200
0100
0100
0200
0400
0800
1000
0000
0000
0000
ENDCHAR
STARTCHAR ?
ENCODING 63
SWIDTH 846 0
DWIDTH 11 0
BBX 11 14 0 -3
BITMAP
0000
1e00
2100
2100
0100
0200
0400
0400
0000
0400
0400
0000
0000
0000
ENDCHAR
STARTCHAR @
ENCODING 64
SWIDTH 846 0
DWIDTH 11 0
BBX 11 14 0 -3
BITMAP
0000
1e00
6180
4c80
9240
9240
9240
9280
4d00
6000
1f80
0000
0000
0000
ENDCHAR
STARTCHAR A
ENCODING 65
SWIDTH 846 0
DWIDTH 11 0
BBX 11 14 0 -3
BITMAP
0000
0c00
0c00
1200
1200
1200
2100
3f00
2100
4080
4080
0000
0000
0000
ENDCHAR
STARTCHAR B
ENCODING 66
SWIDTH 846 0
DWIDTH 11 0
BBX 11 14 0 -3
BITMAP
0000
3f00
2080
2080
2080
3f00
2080
2080
2080
2080
3f00
0000
0000
0000
ENDCHAR
STARTCHAR C
ENCODING 67
SWIDTH 846 0
DWIDTH 11 0
BBX 11 14 0 -3
BITMAP
0000
0f00
3080
2040
4040
4000
4000
4040
2040
3080
0f00
0000
0000
0000
ENDCHAR
STARTCHAR D
ENCODING 68
SWIDTH 846 0
DWIDTH 11 0
BBX 11 14 0 -3
BITMAP
0000
7e00
4100
4080
4080
4080
4080
4080
4080
4100
7e00
0000
0000
0000
ENDCHAR
STARTCHAR E
ENCODING 69
SWIDTH 846 0
DWIDTH 11 0
BBX 11 14 0 -3
BITMAP
0000
3f80
2000
2000
2000
3f00
2000
2000
2000
2000
3f80
0000
0000
0000
ENDCHAR
STARTCHAR F
ENCODING 70
SWIDTH 846 0
DWIDTH 11 0
BBX 11 14 0 -3
BITMAP
0000
3f80
2000
2000
2000
3f00
2000
2000
2000
2000
2000
0000
0000
0000
ENDCHAR
STARTCHAR G
ENCODING 71
SWIDTH 846 0
DWIDTH 11 0
BBX 11 14 0 -3
BITMAP
0000
0f00
3080
2040
4040
4000
47c0
4040
2040
30c0
0f40
0000
0000
0000
ENDCHAR
STARTCHAR H
ENCODING 72
SWIDTH 846 0
DWIDTH 11 0
BBX 11 14 0 -3
BITMAP
0000
4080
4080
4080
4080
7f80
4080
4080
4080
4080
4080
0000
0000
0000
ENDCHAR
STARTCHAR I
ENCODING 73
SWIDTH 846 0
DWIDTH 11 0
BBX 11 14 0 -3
BITMAP
0000
0400
0400
0400
0400
0400
0400
0400
0400
0400
0400
0000
0000
0000
ENDCHAR
STARTCHAR J
ENCODING 74
SWIDTH 846 0
DWIDTH 11 0
BBX 11 14 0 -3
BITMAP
0000
0100
0100
0100
0100
0100
0100
0100
1100
1100
0e00
0000
0000
0000
ENDCHAR
STARTCHAR K
ENCODING 75
SWIDTH 846 0
DWIDTH 11 0
BBX 11 14 0 -3
BITMAP
0000
2080
2100
2200
2400
2800
3400
2200
2100
2080
2040
0000
0000
0000
ENDCHAR
STARTCHAR L
ENCODING 76
SWIDTH 846 0
DWIDTH 11 0
BBX 11 14 0 -3
BITMAP
0000
2000
2000
2000
2000
2000
2000
2000
2000
2000
3f80
0000
0000
0000
ENDCHAR
STARTCHAR M
ENCODING 77
SWIDTH 846 0
DWIDTH 11 0
BBX 11 14 0 -3
BITMAP
0000
c0c0
c0c0
a140
a140
a140
9240
9240
9240
8c40
8c40
0000
0000
0000
ENDCHAR
STARTCHAR N
ENCODING 78
SWIDTH 846 0
DWIDTH 11 0
BBX 11 14 0 -3
BITMAP
0000
6080
5080
5080
4880
4880
4480
4480
4280
4280
4180
0000
0000
0000
ENDCHAR
STARTCHAR O
ENCODING 79
SWIDTH 846 0
DWIDTH 11 0
BBX 11 14 0 -3
BITMAP
0000
1e00
6180
4080
8040
8040
8040
8040
4080
6180
1e00
0000
0000
0000
ENDCHAR
STARTCHAR P
ENCODING 80
SWIDTH 846 0
DWIDTH 11 0
BBX 11 14 0 -3
BITMAP
0000
3f00
2080
2080
2080
2080
3f00
2000
2000
2000
2000
0000
0000
0000
ENDCHAR
STARTCHAR Q
ENCODING 81
SWIDTH 846 0
DWIDTH 11 0
BBX 11 14 0 -3
BITMAP
0000
1e00
6180
4080
8040
8040
8040
8040
4480
6380
1f00
0080
0040
0000
ENDCHAR
STARTCHAR R
ENCODING 82
SWIDTH 846 0
DWIDTH 11 0
BBX 11 14 0 -3
BITMAP
0000
3f00
2080
2080
2080
3f00
2080
2080
2080
2080
2080
0000
0000
0000
ENDCHAR
STARTCHAR S
ENCODING 83
SWIDTH 846 0
DWIDTH 11 0
BBX 11 14 0 -3
BITMAP
0000
1f00
2080
2080
2000
1c00
0300
4080
4080
2080
1f00
0000
0000
0000
ENDCHAR
STARTCHAR T
ENCODING 84
SWIDTH 846 0
DWIDTH 11 0
BBX 11 14 0 -3
BITMAP
0000
7fc0
0400
0400
0400
0400
0400
0400
0400
0400
0400
0000
0000
0000
ENDCHAR
STARTCHAR U
ENCODING 85
SWIDTH 846 0
DWIDTH 11 0
BBX 11 14 0 -3
BITMAP
0000
4080
4080
4080
4080
4080
4080
4080
4080
2100
1e00
0000
0000
0000
ENDCHAR
STARTCHAR V
ENCODING 86
SWIDTH 846 0
DWIDTH 11 0
BBX 11 14 0 -3
BITMAP
0000
4080
4080
2100
2100
2100
1200
1200
1200
0c00
0c00
0000
0000
0000
ENDCHAR
STARTCHAR W
ENCODING 87
SWIDTH 846 0
DWIDTH 11 0
BBX 11 14 0 -3
BITMAP
0000
8440
8440
8c40
4c80
4c80
5280
5280
2100
2100
2100
0000
0000
0000
ENDCHAR
STARTCHAR X
ENCODING 88
SWIDTH 846 0
DWIDTH 11 0
BBX 11 14 0 -3
BITMAP
0000
2080
2080
1100
0a00
0400
0a00
1100
1100
2080
4040
0000
0000
0000
ENDCHAR
STARTCHAR Y
ENCODING 89
SWIDTH 846 0
DWIDTH 11 0
BBX 11 14 0 -3
BITMAP
0000
4040
2080
2080
1100
0a00
0a00
0400
0400
0400
0400
0000
0000
0000
ENDCHAR
STARTCHAR Z
ENCODING 90
SWIDTH 846 0
DWIDTH 11 0
BBX 11 14 0 -3
BITMAP
0000
7f80
0080
0100
0200
0400
0800
1000
2000
4000
7f80
0000
0000
0000
ENDCHAR
STARTCHAR [
ENCODING 91
SWIDTH 846 0
DWIDTH 11 0
BBX 11 14 0 -3
BITMAP
0000
1e00
1000
1000
1000
1000
1000
1000
1000
1000
1000
1000
1000
1e00
ENDCHAR
STARTCHAR \
ENCODING 92
SWIDTH 846 0
DWIDTH 11 0
BBX 11 14 0 -3
BITMAP
0000
1000
1000
0800
0800
0400
0400
0200
0200
0100
0100
0000
0000
0000
ENDCHAR
STARTCHAR ]
ENCODING 93
SWIDTH 846 0
DWIDTH 11 0
BBX 11 14 0 -3
BITMAP
0000
1e00
0200
0200
0200
0200
0200
0200
0200
0200
0200
0200
0200
1e00
ENDCHAR
STARTCHAR ^
ENCODING 94
SWIDTH 846 0
DWIDTH 11 0
BBX 11 14 0 -3
BITMAP
0000
0000
0000
0000
0400
0e00
1500
0400
0400
0400
0400
0000
0000
0000
ENDCHAR
STARTCHAR _
ENCODING 95
SWIDTH 846 0
DWIDTH 11 0
BBX 11 14 0 -3
BITMAP
0000
0000
0000
0000
0800
1000
3f80
1000
0800
0000
0000
0000
0000
0000
ENDCHAR
STARTCHAR `
ENCODING 96
SWIDTH 846 0
DWIDTH 11 0
BBX 11 14 0 -3
BITMAP
0000
0400
0800
0800
0c00
0000
0000
0000
0000
0000
0000
0000
0000
0000
ENDCHAR
STARTCHAR a
ENCODING 97
SWIDTH 846 0
DWIDTH 11 0
BBX 11 14 0 -3
BITMAP
0000
0000
0000
0000
1c00
2200
0600
1a00
2200
2200
1d00
0000
0000
0000
ENDCHAR
STARTCHAR b
ENCODING 98
SWIDTH 846 0
DWIDTH 11 0
BBX 11 14 0 -3
BITMAP
0000
2000
2000
2000
2c00
3200
2100
2100
2100
3200
2c00
0000
0000
0000
ENDCHAR
STARTCHAR c
ENCODING 99
SWIDTH 846 0
DWIDTH 11 0
BBX 11 14 0 -3
BITMAP
0000
0000
0000
0000
0e00
1100
2000
2000
2000
1100
0e00
0000
0000
0000
ENDCHAR
STARTCHAR d
ENCODING 100
SWIDTH 846 0
DWIDTH 11 0
BBX 11 14 0 -3
BITMAP
0000
0100
0100
0100
0d00
1300
2100
2100
2100
1300
0d00
0000
0000
0000
ENDCHAR
STARTCHAR e
ENCODING 101
SWIDTH 846 0
DWIDTH 11 0
BBX 11 14 0 -3
BITMAP
0000
0000
0000
0000
0c00
1200
2100
3f00
2000
1100
0e00
0000
0000
0000
ENDCHAR
STARTCHAR f
ENCODING 102
SWIDTH 846 0
DWIDTH 11 0
BBX 11 14 0 -3
BITMAP
0000
0600
0800
0800
1e00
0800
0800
0800
0800
0800
0800
0000
0000
0000
ENDCHAR
STARTCHAR g
ENCODING 103
SWIDTH 846 0
DWIDTH 11 0
BBX 11 14 0 -3
BITMAP
0000
0000
0000
0000
0d00
1300
2100
2100
2100
1300
0d00
0100
2100
1e00
ENDCHAR
STARTCHAR h
ENCODING 104
SWIDTH 846 0
DWIDTH 11 0
BBX 11 14 0 -3
BITMAP
0000
2000
2000
2000
2e00
3100
2100
2100
2100
2100
2100
0000
0000
0000
ENDCHAR
STARTCHAR i
ENCODING 105
SWIDTH 846 0
DWIDTH 11 0
BBX 11 14 0 -3
BITMAP
0000
0400
0400
0000
0400
0400
0400
0400
0400
0400
0400
0000
0000
0000
ENDCHAR
STARTCHAR j
ENCODING 106
SWIDTH 846 0
DWIDTH 11 0
BBX 11 14 0 -3
BITMAP
0000
0400
0400
0000
0400
0400
0400
0400
0400
0400
0400
0400
1800
0000
ENDCHAR
STARTCHAR k
ENCODING 107
SWIDTH 846 0
DWIDTH 11 0
BBX 11 14 0 -3
BITMAP
0000
1000
1000
1000
1100
1200
1c00
1400
1200
1100
1080
0000
0000
0000
ENDCHAR
STARTCHAR l
ENCODING 108
SWIDTH 846 0
DWIDTH 11 0
BBX 11 14 0 -3
BITMAP
0000
0400
0400
0400
0400
0400
0400
0400
0400
0400
0400
0000
0000
0000
ENDCHAR
STARTCHAR m
ENCODING 109
SWIDTH 846 0
DWIDTH 11 0
BBX 11 14 0 -3
BITMAP
0000
0000
0000
0000
5980
6640
4440
4440
4440
4440
4440
0000
0000
0000
ENDCHAR
STARTCHAR n
ENCODING 110
SWIDTH 846 0
DWIDTH 11 0
BBX 11 14 0 -3
BITMAP
0000
0000
0000
0000
2e00
3100
2100
2100
2100
2100
2100
0000
0000
0000
ENDCHAR
STARTCHAR o
ENCODING 111
SWIDTH 846 0
DWIDTH 11 0
BBX 11 14 0 -3
BITMAP
0000
0000
0000
0000
0e00
1100
2080
2080
2080
1100
0e00
0000
0000
0000
ENDCHAR
STARTCHAR p
ENCODING 112
SWIDTH 846 0
DWIDTH 11 0
BBX 11 14 0 -3
BITMAP
0000
0000
0000
0000
2c00
3200
2100
2100
2100
3200
2c00
2000
2000
2000
ENDCHAR
STARTCHAR q
ENCODING 113
SWIDTH 846 0
DWIDTH 11 0
BBX 11 14 0 -3
BITMAP
0000
0000
0000
0000
0d00
1300
2100
2100
2100
1300
0d00
0100
0100
0100
ENDCHAR
STARTCHAR r
ENCODING 114
SWIDTH 846 0
DWIDTH 11 0
BBX 11 14 0 -3
BITMAP
0000
0000
0000
0000
1600
1800
1000
1000
1000
1000
1000
0000
0000
0000
ENDCHAR
STARTCHAR s
ENCODING 115
SWIDTH 846 0
DWIDTH 11 0
BBX 11 14 0 -3
BITMAP
0000
0000
0000
0000
1e00
2100
2000
1e00
0100
2100
1e00
0000
0000
0000
ENDCHAR
STARTCHAR t
ENCODING 116
SWIDTH 846 0
DWIDTH 11 0
BBX 11 14 0 -3
BITMAP
0000
0000
0800
0800
1e00
0800
0800
0800
0800
0800
0600
0000
0000
0000
ENDCHAR
STARTCHAR u
ENCODING 117
SWIDTH 846 0
DWIDTH 11 0
BBX 11 14 0 -3
BITMAP
0000
0000
0000
0000
2100
2100
2100
2100
2100
2300
1d00
0000
0000
0000
ENDCHAR
STARTCHAR v
ENCODING 118
SWIDTH 846 0
DWIDTH 11 0
BBX 11 14 0 -3
BITMAP
0000
0000
0000
0000
2080
2080
1100
1100
0a00
0a00
0400
0000
0000
0000
ENDCHAR
STARTCHAR w
ENCODING 119
SWIDTH 846 0
DWIDTH 11 0
BBX 11 14 0 -3
BITMAP
0000
0000
0000
0000
4440
4440
2a80
2a80
2a80
1100
1100
0000
0000
0000
ENDCHAR
STARTCHAR x
ENCODING 120
SWIDTH 846 0
DWIDTH 11 0
BBX 11 14 0 -3
BITMAP
0000
0000
0000
0000
1100
1100
0a00
0400
0a00
1100
1100
0000
0000
0000
ENDCHAR
STARTCHAR y
ENCODING 121
SWIDTH 846 0
DWIDTH 11 0
BBX 11 14 0 -3
BITMAP
0000
0000
0000
0000
2080
2080
1100
1100
0a00
0a00
0400
0400
2400
1800
ENDCHAR
STARTCHAR z
ENCODING 122
SWIDTH 846 0
DWIDTH 11 0
BBX 11 14 0 -3
BITMAP
0000
0000
0000
0000
1f00
0100
0200
0400
0800
1000
1f00
0000
0000
0000
ENDCHAR
STARTCHAR {
ENCODING 123
SWIDTH 846 0
DWIDTH 11 0
BBX 11 14 0 -3
BITMAP
0000
0700
0800
0800
0800
0800
0800
3000
0800
0800
0800
0800
0800
0700
ENDCHAR
STARTCHAR |
ENCODING 124
SWIDTH 846 0
DWIDTH 11 0
BBX 11 14 0 -3
BITMAP
0000
0400
0400
0400
0400
0400
0400
0400
0400
0400
0400
0400
0400
0000
ENDCHAR
STARTCHAR }
ENCODING 125
SWIDTH 846 0
DWIDTH 11 0
BBX 11 14 0 -3
BITMAP
0000
3800
0400
0400
0400
0400
0400
0300
0400
0400
0400
0400
0400
3800
ENDCHAR
STARTCHAR ~
ENCODING 126
SWIDTH 846 0
DWIDTH 11 0
BBX 11 14 0 -3
BITMAP
0000
0000
0000
0000
0000
1900
2600
0000
0000
0000
0000
0000
0000
0000
ENDCHAR
ENDFONT
